<?xml version="1.0" encoding="UTF-8" standalone="no"?>
<!DOCTYPE svg PUBLIC "-//W3C//DTD SVG 1.1//EN"
        "http://www.w3.org/Graphics/SVG/1.1/DTD/svg11.dtd">
<!-- Generated by graphviz version 2.43.0 (0)
 -->
<!-- Title: %3 Pages: 1 -->
<svg width="822pt" height="260pt"
     viewBox="0.00 0.00 822.21 260.00" xmlns="http://www.w3.org/2000/svg" xmlns:xlink="http://www.w3.org/1999/xlink">
    <g id="graph0" class="graph" transform="scale(1 1) rotate(0) translate(4 256)">
        <title>%3</title>
        <polygon fill="white" stroke="transparent" points="-4,4 -4,-256 818.21,-256 818.21,4 -4,4"/>
        <!-- [root] aws_security_group.dynamicsg (expand) -->
        <g id="node1" class="node">
            <title>[root] aws_security_group.dynamicsg (expand)</title>
            <polygon fill="none" stroke="black" points="641.88,-108 402.88,-108 402.88,-72 641.88,-72 641.88,-108"/>
            <text text-anchor="middle" x="522.38" y="-86.3" font-family="Times,serif" font-size="14.00">aws_security_group.dynamicsg</text>
        </g>
        <!-- [root] provider[&quot;registry.terraform.io/hashicorp/aws&quot;] -->
        <g id="node2" class="node">
            <title>[root] provider[&quot;registry.terraform.io/hashicorp/aws&quot;]</title>
            <polygon fill="none" stroke="black" points="325.38,-36 0.12,-18 325.38,0 650.65,-18 325.38,-36"/>
            <text text-anchor="middle" x="325.38" y="-14.3" font-family="Times,serif" font-size="14.00">provider[&quot;registry.terraform.io/hashicorp/aws&quot;]</text>
        </g>
        <!-- [root] aws_security_group.dynamicsg (expand)&#45;&gt;[root] provider[&quot;registry.terraform.io/hashicorp/aws&quot;] -->
        <g id="edge1" class="edge">
            <title>[root] aws_security_group.dynamicsg (expand)&#45;&gt;[root] provider[&quot;registry.terraform.io/hashicorp/aws&quot;]</title>
            <path fill="none" stroke="black" d="M474.44,-71.97C444.74,-61.41 406.63,-47.87 376.37,-37.12"/>
            <polygon fill="black" stroke="black" points="377.44,-33.78 366.85,-33.73 375.1,-40.38 377.44,-33.78"/>
        </g>
        <!-- [root] var.sg_ports -->
        <g id="node3" class="node">
            <title>[root] var.sg_ports</title>
            <polygon fill="none" stroke="black" points="766.38,-36 668.38,-36 668.38,0 772.38,0 772.38,-30 766.38,-36"/>
            <polyline fill="none" stroke="black" points="766.38,-36 766.38,-30 "/>
            <polyline fill="none" stroke="black" points="772.38,-30 766.38,-30 "/>
            <text text-anchor="middle" x="720.38" y="-14.3" font-family="Times,serif" font-size="14.00">var.sg_ports</text>
        </g>
        <!-- [root] aws_security_group.dynamicsg (expand)&#45;&gt;[root] var.sg_ports -->
        <g id="edge2" class="edge">
            <title>[root] aws_security_group.dynamicsg (expand)&#45;&gt;[root] var.sg_ports</title>
            <path fill="none" stroke="black" d="M570.56,-71.97C598.23,-62.19 633.16,-49.84 662.33,-39.52"/>
            <polygon fill="black" stroke="black" points="663.72,-42.74 671.98,-36.11 661.39,-36.14 663.72,-42.74"/>
        </g>
        <!-- [root] provider[&quot;registry.terraform.io/hashicorp/aws&quot;] (close) -->
        <g id="node4" class="node">
            <title>[root] provider[&quot;registry.terraform.io/hashicorp/aws&quot;] (close)</title>
            <ellipse fill="none" stroke="black" cx="522.38" cy="-162" rx="291.65" ry="18"/>
            <text text-anchor="middle" x="522.38" y="-158.3" font-family="Times,serif" font-size="14.00">[root] provider[&quot;registry.terraform.io/hashicorp/aws&quot;] (close)</text>
        </g>
        <!-- [root] provider[&quot;registry.terraform.io/hashicorp/aws&quot;] (close)&#45;&gt;[root] aws_security_group.dynamicsg (expand) -->
        <g id="edge3" class="edge">
            <title>[root] provider[&quot;registry.terraform.io/hashicorp/aws&quot;] (close)&#45;&gt;[root] aws_security_group.dynamicsg (expand)</title>
            <path fill="none" stroke="black" d="M522.38,-143.7C522.38,-135.98 522.38,-126.71 522.38,-118.11"/>
            <polygon fill="black" stroke="black" points="525.88,-118.1 522.38,-108.1 518.88,-118.1 525.88,-118.1"/>
        </g>
        <!-- [root] root -->
        <g id="node5" class="node">
            <title>[root] root</title>
            <ellipse fill="none" stroke="black" cx="522.38" cy="-234" rx="58.49" ry="18"/>
            <text text-anchor="middle" x="522.38" y="-230.3" font-family="Times,serif" font-size="14.00">[root] root</text>
        </g>
        <!-- [root] root&#45;&gt;[root] provider[&quot;registry.terraform.io/hashicorp/aws&quot;] (close) -->
        <g id="edge4" class="edge">
            <title>[root] root&#45;&gt;[root] provider[&quot;registry.terraform.io/hashicorp/aws&quot;] (close)</title>
            <path fill="none" stroke="black" d="M522.38,-215.7C522.38,-207.98 522.38,-198.71 522.38,-190.11"/>
            <polygon fill="black" stroke="black" points="525.88,-190.1 522.38,-180.1 518.88,-190.1 525.88,-190.1"/>
        </g>
    </g>
</svg>
